<?xml version="1.0" encoding="UTF-8" standalone="no"?>
<svg
   version="1.1"
   viewBox="0 0 539.66015 383.09318"
   fill="none"
   stroke="none"
   stroke-linecap="square"
   stroke-miterlimit="10"
   id="svg119"
   sodipodi:docname="bioheads.svg"
   width="142.78508mm"
   height="101.36007mm"
   inkscape:version="1.1.2 (0a00cf5339, 2022-02-04)"
   xmlns:inkscape="http://www.inkscape.org/namespaces/inkscape"
   xmlns:sodipodi="http://sodipodi.sourceforge.net/DTD/sodipodi-0.dtd"
   xmlns="http://www.w3.org/2000/svg"
   xmlns:svg="http://www.w3.org/2000/svg">
  <defs
     id="defs123" />
  <sodipodi:namedview
     id="namedview121"
     pagecolor="#ffffff"
     bordercolor="#666666"
     borderopacity="1.0"
     inkscape:pageshadow="2"
     inkscape:pageopacity="0.0"
     inkscape:pagecheckerboard="0"
     showgrid="false"
     inkscape:document-units="mm"
     units="mm"
     fit-margin-top="1"
     fit-margin-right="1"
     fit-margin-bottom="1"
     fit-margin-left="1"
     inkscape:zoom="1.1925926"
     inkscape:cx="290.54348"
     inkscape:cy="225.55901"
     inkscape:window-width="1920"
     inkscape:window-height="1015"
     inkscape:window-x="0"
     inkscape:window-y="0"
     inkscape:window-maximized="1"
     inkscape:current-layer="g117" />
  <clipPath
     id="g220d29dc5d5_0_0.0">
    <path
       d="M 0,0 H 960 V 540 H 0 Z"
       clip-rule="nonzero"
       id="path2" />
  </clipPath>
  <g
     clip-path="url(#g220d29dc5d5_0_0.0)"
     id="g117"
     transform="translate(-190.03328,-44.490738)">
    <path
       fill="#ffffff"
       d="M 193.81281,48.270265 H 725.91389 V 423.80437 H 193.81281 Z"
       fill-rule="evenodd"
       id="path5"
       style="stroke-width:0.620854" />
    <path
       fill="#000000"
       fill-opacity="0"
       d="m 219.868,263.22308 v 0 c 0,-23.00461 19.11449,-41.65353 42.6934,-41.65353 v 0 c 11.32297,0 22.18222,4.38848 30.18879,12.20004 8.00656,7.81155 12.5046,18.40629 12.5046,29.45349 v 0 c 0,23.00464 -19.1145,41.65356 -42.69339,41.65356 v 0 c -23.57891,0 -42.6934,-18.64892 -42.6934,-41.65356 z"
       fill-rule="evenodd"
       id="path7" />
    <path
       stroke="#595959"
       stroke-width="2"
       stroke-linejoin="round"
       stroke-linecap="butt"
       d="m 219.868,263.22308 v 0 c 0,-23.00461 19.11449,-41.65353 42.6934,-41.65353 v 0 c 11.32297,0 22.18222,4.38848 30.18879,12.20004 8.00656,7.81155 12.5046,18.40629 12.5046,29.45349 v 0 c 0,23.00464 -19.1145,41.65356 -42.69339,41.65356 v 0 c -23.57891,0 -42.6934,-18.64892 -42.6934,-41.65356 z"
       fill-rule="evenodd"
       id="path9" />
    <path
       fill="#000000"
       fill-opacity="0"
       d="m 262.5614,304.8924 v 0 c 14.89493,0 29.17978,11.36194 39.7121,31.58633 10.53229,20.2244 16.44928,47.65457 16.44928,76.25617 H 262.5614 Z"
       fill-rule="evenodd"
       id="path11" />
    <path
       fill="#000000"
       fill-opacity="0"
       d="m 262.5614,304.8924 v 0 c 14.89493,0 29.17978,11.36194 39.7121,31.58633 10.53229,20.2244 16.44928,47.65457 16.44928,76.25617"
       fill-rule="evenodd"
       id="path13" />
    <path
       stroke="#595959"
       stroke-width="2"
       stroke-linejoin="round"
       stroke-linecap="butt"
       d="m 262.5614,304.8924 v 0 c 14.89493,0 29.17978,11.36194 39.7121,31.58633 10.53229,20.2244 16.44928,47.65457 16.44928,76.25617"
       fill-rule="evenodd"
       id="path15" />
    <path
       fill="#000000"
       fill-opacity="0"
       d="m 262.5614,304.8924 v 0 c -14.89494,0 -29.17981,11.36194 -39.71211,31.58633 -10.53231,20.2244 -16.4493,47.65457 -16.4493,76.25617 h 56.16141 z"
       fill-rule="evenodd"
       id="path17" />
    <path
       fill="#000000"
       fill-opacity="0"
       d="m 262.5614,304.8924 v 0 c -14.89494,0 -29.17981,11.36194 -39.71211,31.58633 -10.53231,20.2244 -16.4493,47.65457 -16.4493,76.25617"
       fill-rule="evenodd"
       id="path19" />
    <path
       stroke="#595959"
       stroke-width="2"
       stroke-linejoin="round"
       stroke-linecap="butt"
       d="m 262.5614,304.8924 v 0 c -14.89494,0 -29.17981,11.36194 -39.71211,31.58633 -10.53231,20.2244 -16.4493,47.65457 -16.4493,76.25617"
       fill-rule="evenodd"
       id="path21" />
    <path
       fill="#000000"
       fill-opacity="0"
       d="m 218.93645,332.03412 h 87.24989 v 78.07873 h -87.24989 z"
       fill-rule="evenodd"
       id="path23" />
    <path
       fill="#000000"
       d="M 244.13951,394.1135 V 348.301 h 9.25 v 18.03125 h 18.12501 V 348.301 h 9.25 v 45.8125 h -9.25 v -20.03125 h -18.12501 v 20.03125 z"
       fill-rule="nonzero"
       id="path25" />
    <path
       fill="#000000"
       fill-opacity="0"
       d="m 314.67844,175.2231 v 0 c 0,-23.00462 19.06491,-41.65355 42.58267,-41.65355 v 0 c 11.29364,0 22.1247,4.38849 30.11051,12.20004 7.98581,7.81156 12.47216,18.4063 12.47216,29.45351 v 0 c 0,23.00461 -19.06491,41.65355 -42.58267,41.65355 v 0 c -23.51776,0 -42.58267,-18.64894 -42.58267,-41.65355 z"
       fill-rule="evenodd"
       id="path27" />
    <path
       stroke="#595959"
       stroke-width="2"
       stroke-linejoin="round"
       stroke-linecap="butt"
       d="m 314.67844,175.2231 v 0 c 0,-23.00462 19.06491,-41.65355 42.58267,-41.65355 v 0 c 11.29364,0 22.1247,4.38849 30.11051,12.20004 7.98581,7.81156 12.47216,18.4063 12.47216,29.45351 v 0 c 0,23.00461 -19.06491,41.65355 -42.58267,41.65355 v 0 c -23.51776,0 -42.58267,-18.64894 -42.58267,-41.65355 z"
       fill-rule="evenodd"
       id="path29" />
    <path
       fill="#000000"
       fill-opacity="0"
       d="m 357.2611,216.8924 v 0 c 14.85629,0 29.10413,11.36194 39.60913,31.58633 10.50497,20.2244 16.40662,47.65457 16.40662,76.25617 H 357.2611 Z"
       fill-rule="evenodd"
       id="path31" />
    <path
       fill="#000000"
       fill-opacity="0"
       d="m 357.2611,216.8924 v 0 c 14.85629,0 29.10413,11.36194 39.60913,31.58633 10.50497,20.2244 16.40662,47.65457 16.40662,76.25617"
       fill-rule="evenodd"
       id="path33" />
    <path
       stroke="#595959"
       stroke-width="2"
       stroke-linejoin="round"
       stroke-linecap="butt"
       d="m 357.2611,216.8924 v 0 c 14.85629,0 29.10413,11.36194 39.60913,31.58633 10.50497,20.2244 16.40662,47.65457 16.40662,76.25617"
       fill-rule="evenodd"
       id="path35" />
    <path
       fill="#000000"
       fill-opacity="0"
       d="m 357.2611,216.8924 v 0 c -14.85629,0 -29.10413,11.36194 -39.6091,31.58633 -10.50501,20.2244 -16.40665,47.65457 -16.40665,76.25617 h 56.01575 z"
       fill-rule="evenodd"
       id="path37" />
    <path
       fill="#000000"
       fill-opacity="0"
       d="m 357.2611,216.8924 v 0 c -14.85629,0 -29.10413,11.36194 -39.6091,31.58633 -10.50501,20.2244 -16.40665,47.65457 -16.40665,76.25617"
       fill-rule="evenodd"
       id="path39" />
    <path
       stroke="#595959"
       stroke-width="2"
       stroke-linejoin="round"
       stroke-linecap="butt"
       d="m 357.2611,216.8924 v 0 c -14.85629,0 -29.10413,11.36194 -39.6091,31.58633 -10.50501,20.2244 -16.40665,47.65457 -16.40665,76.25617"
       fill-rule="evenodd"
       id="path41" />
    <path
       fill="#000000"
       fill-opacity="0"
       d="m 313.7493,244.03412 h 87.02362 v 78.07873 H 313.7493 Z"
       fill-rule="evenodd"
       id="path43" />
    <path
       fill="#000000"
       d="M 340.5736,306.1135 V 260.301 h 33.96875 v 7.75 H 349.8236 v 10.15625 h 23 v 7.71875 h -23 v 12.46875 h 25.59375 v 7.71875 z"
       fill-rule="nonzero"
       id="path45" />
    <path
       fill="#000000"
       fill-opacity="0"
       d="m 416.49472,103.2231 v 0 c 0,-23.004616 19.06491,-41.653545 42.58267,-41.653545 v 0 c 11.29361,0 22.1247,4.388485 30.11051,12.200039 7.98577,7.811554 12.47216,18.406296 12.47216,29.453506 v 0 c 0,23.00462 -19.06491,41.65355 -42.58267,41.65355 v 0 c -23.51776,0 -42.58267,-18.64893 -42.58267,-41.65355 z"
       fill-rule="evenodd"
       id="path47" />
    <path
       stroke="#595959"
       stroke-width="2"
       stroke-linejoin="round"
       stroke-linecap="butt"
       d="m 416.49472,103.2231 v 0 c 0,-23.004616 19.06491,-41.653545 42.58267,-41.653545 v 0 c 11.29361,0 22.1247,4.388485 30.11051,12.200039 7.98577,7.811554 12.47216,18.406296 12.47216,29.453506 v 0 c 0,23.00462 -19.06491,41.65355 -42.58267,41.65355 v 0 c -23.51776,0 -42.58267,-18.64893 -42.58267,-41.65355 z"
       fill-rule="evenodd"
       id="path49" />
    <path
       fill="#000000"
       fill-opacity="0"
       d="m 459.0774,144.8924 v 0 c 14.85629,0 29.10413,11.36194 39.6091,31.58633 10.505,20.2244 16.40665,47.65457 16.40665,76.25618 H 459.0774 Z"
       fill-rule="evenodd"
       id="path51" />
    <path
       fill="#000000"
       fill-opacity="0"
       d="m 459.0774,144.8924 v 0 c 14.85629,0 29.10413,11.36194 39.6091,31.58633 10.505,20.2244 16.40665,47.65457 16.40665,76.25618"
       fill-rule="evenodd"
       id="path53" />
    <path
       stroke="#595959"
       stroke-width="2"
       stroke-linejoin="round"
       stroke-linecap="butt"
       d="m 459.0774,144.8924 v 0 c 14.85629,0 29.10413,11.36194 39.6091,31.58633 10.505,20.2244 16.40665,47.65457 16.40665,76.25618"
       fill-rule="evenodd"
       id="path55" />
    <path
       fill="#000000"
       fill-opacity="0"
       d="m 459.0774,144.8924 v 0 c -14.85632,0 -29.10413,11.36194 -39.60913,31.58633 -10.50497,20.2244 -16.40662,47.65457 -16.40662,76.25618 h 56.01575 z"
       fill-rule="evenodd"
       id="path57" />
    <path
       fill="#000000"
       fill-opacity="0"
       d="m 459.0774,144.8924 v 0 c -14.85632,0 -29.10413,11.36194 -39.60913,31.58633 -10.50497,20.2244 -16.40662,47.65457 -16.40662,76.25618"
       fill-rule="evenodd"
       id="path59" />
    <path
       stroke="#595959"
       stroke-width="2"
       stroke-linejoin="round"
       stroke-linecap="butt"
       d="m 459.0774,144.8924 v 0 c -14.85632,0 -29.10413,11.36194 -39.60913,31.58633 -10.50497,20.2244 -16.40662,47.65457 -16.40662,76.25618"
       fill-rule="evenodd"
       id="path61" />
    <path
       fill="#000000"
       fill-opacity="0"
       d="m 415.56558,172.03412 h 87.02362 v 78.07873 h -87.02362 z"
       fill-rule="evenodd"
       id="path63" />
    <path
       fill="#000000"
       d="m 481.93677,234.1135 h -10.0625 l -4,-10.40625 h -18.3125 l -3.78125,10.40625 h -9.8125 l 17.84375,-45.8125 h 9.78125 z m -17.03125,-18.125 -6.3125,-17 -6.1875,17 z"
       fill-rule="nonzero"
       id="path65" />
    <path
       fill="#000000"
       fill-opacity="0"
       d="m 519.2375,175.2231 v 0 c 0,-23.00462 19.06494,-41.65355 42.5827,-41.65355 v 0 c 11.29358,0 22.1247,4.38849 30.11048,12.20004 7.98578,7.81156 12.47216,18.4063 12.47216,29.45351 v 0 c 0,23.00461 -19.06488,41.65355 -42.58264,41.65355 v 0 c -23.51776,0 -42.5827,-18.64894 -42.5827,-41.65355 z"
       fill-rule="evenodd"
       id="path67" />
    <path
       stroke="#595959"
       stroke-width="2"
       stroke-linejoin="round"
       stroke-linecap="butt"
       d="m 519.2375,175.2231 v 0 c 0,-23.00462 19.06494,-41.65355 42.5827,-41.65355 v 0 c 11.29358,0 22.1247,4.38849 30.11048,12.20004 7.98578,7.81156 12.47216,18.4063 12.47216,29.45351 v 0 c 0,23.00461 -19.06488,41.65355 -42.58264,41.65355 v 0 c -23.51776,0 -42.5827,-18.64894 -42.5827,-41.65355 z"
       fill-rule="evenodd"
       id="path69" />
    <path
       fill="#000000"
       fill-opacity="0"
       d="m 561.8202,216.8924 v 0 c 14.85626,0 29.10413,11.36194 39.60907,31.58633 10.505,20.2244 16.40668,47.65457 16.40668,76.25617 H 561.8202 Z"
       fill-rule="evenodd"
       id="path71" />
    <path
       fill="#000000"
       fill-opacity="0"
       d="m 561.8202,216.8924 v 0 c 14.85626,0 29.10413,11.36194 39.60907,31.58633 10.505,20.2244 16.40668,47.65457 16.40668,76.25617"
       fill-rule="evenodd"
       id="path73" />
    <path
       stroke="#595959"
       stroke-width="2"
       stroke-linejoin="round"
       stroke-linecap="butt"
       d="m 561.8202,216.8924 v 0 c 14.85626,0 29.10413,11.36194 39.60907,31.58633 10.505,20.2244 16.40668,47.65457 16.40668,76.25617"
       fill-rule="evenodd"
       id="path75" />
    <path
       fill="#000000"
       fill-opacity="0"
       d="m 561.8202,216.8924 v 0 c -14.85632,0 -29.10413,11.36194 -39.60913,31.58633 -10.50501,20.2244 -16.40665,47.65457 -16.40665,76.25617 h 56.01578 z"
       fill-rule="evenodd"
       id="path77" />
    <path
       fill="#000000"
       fill-opacity="0"
       d="m 561.8202,216.8924 v 0 c -14.85632,0 -29.10413,11.36194 -39.60913,31.58633 -10.50501,20.2244 -16.40665,47.65457 -16.40665,76.25617"
       fill-rule="evenodd"
       id="path79" />
    <path
       stroke="#595959"
       stroke-width="2"
       stroke-linejoin="round"
       stroke-linecap="butt"
       d="m 561.8202,216.8924 v 0 c -14.85632,0 -29.10413,11.36194 -39.60913,31.58633 -10.50501,20.2244 -16.40665,47.65457 -16.40665,76.25617"
       fill-rule="evenodd"
       id="path81" />
    <path
       fill="#000000"
       fill-opacity="0"
       d="m 518.30835,244.03412 h 87.02362 v 78.07873 h -87.02362 z"
       fill-rule="evenodd"
       id="path83" />
    <path
       fill="#000000"
       d="m 543.3358,260.301 h 16.90625 q 5.71875,0 8.71875,0.875 4.03125,1.1875 6.90625,4.21875 2.875,3.03125 4.375,7.42187 1.5,4.39063 1.5,10.82813 0,5.65625 -1.40625,9.75 -1.71875,5 -4.90625,8.09375 -2.40625,2.34375 -6.5,3.65625 -3.0625,0.96875 -8.1875,0.96875 H 543.3358 Z m 9.25,7.75 v 30.34375 h 6.90625 q 3.875,0 5.59375,-0.4375 2.25,-0.5625 3.73437,-1.90625 1.48438,-1.34375 2.42188,-4.42188 0.9375,-3.07812 0.9375,-8.39062 0,-5.3125 -0.9375,-8.15625 -0.9375,-2.84375 -2.625,-4.4375 -1.6875,-1.59375 -4.28125,-2.15625 -1.9375,-0.4375 -7.59375,-0.4375 z"
       fill-rule="nonzero"
       id="path85" />
    <path
       fill="#000000"
       fill-opacity="0"
       d="m 615.3531,262.77353 v 0 c 0,-23.00461 19.06488,-41.65353 42.58264,-41.65353 v 0 c 11.29364,0 22.12469,4.38848 30.11054,12.20004 7.98577,7.81155 12.47216,18.40629 12.47216,29.45349 v 0 c 0,23.00464 -19.06494,41.65356 -42.5827,41.65356 v 0 c -23.51776,0 -42.58264,-18.64892 -42.58264,-41.65356 z"
       fill-rule="evenodd"
       id="path87" />
    <path
       stroke="#595959"
       stroke-width="2"
       stroke-linejoin="round"
       stroke-linecap="butt"
       d="m 615.3531,262.77353 v 0 c 0,-23.00461 19.06488,-41.65353 42.58264,-41.65353 v 0 c 11.29364,0 22.12469,4.38848 30.11054,12.20004 7.98577,7.81155 12.47216,18.40629 12.47216,29.45349 v 0 c 0,23.00464 -19.06494,41.65356 -42.5827,41.65356 v 0 c -23.51776,0 -42.58264,-18.64892 -42.58264,-41.65356 z"
       fill-rule="evenodd"
       id="path89" />
    <path
       fill="#000000"
       fill-opacity="0"
       d="m 657.9357,304.44284 v 0 c 14.85632,0 29.10413,11.36194 39.60913,31.58633 10.50501,20.2244 16.40662,47.65457 16.40662,76.25617 H 657.9357 Z"
       fill-rule="evenodd"
       id="path91" />
    <path
       fill="#000000"
       fill-opacity="0"
       d="m 657.9357,304.44284 v 0 c 14.85632,0 29.10413,11.36194 39.60913,31.58633 10.50501,20.2244 16.40662,47.65457 16.40662,76.25617"
       fill-rule="evenodd"
       id="path93" />
    <path
       stroke="#595959"
       stroke-width="2"
       stroke-linejoin="round"
       stroke-linecap="butt"
       d="m 657.9357,304.44284 v 0 c 14.85632,0 29.10413,11.36194 39.60913,31.58633 10.50501,20.2244 16.40662,47.65457 16.40662,76.25617"
       fill-rule="evenodd"
       id="path95" />
    <path
       fill="#000000"
       fill-opacity="0"
       d="m 657.9357,304.44284 v 0 c -14.85626,0 -29.10413,11.36194 -39.60907,31.58633 -10.505,20.2244 -16.40668,47.65457 -16.40668,76.25617 h 56.01575 z"
       fill-rule="evenodd"
       id="path97" />
    <path
       fill="#000000"
       fill-opacity="0"
       d="m 657.9357,304.44284 v 0 c -14.85626,0 -29.10413,11.36194 -39.60907,31.58633 -10.505,20.2244 -16.40668,47.65457 -16.40668,76.25617"
       fill-rule="evenodd"
       id="path99" />
    <path
       stroke="#595959"
       stroke-width="2"
       stroke-linejoin="round"
       stroke-linecap="butt"
       d="m 657.9357,304.44284 v 0 c -14.85626,0 -29.10413,11.36194 -39.60907,31.58633 -10.505,20.2244 -16.40668,47.65457 -16.40668,76.25617"
       fill-rule="evenodd"
       id="path101" />
    <path
       fill="#000000"
       fill-opacity="0"
       d="m 614.42395,331.58456 h 87.02362 v 78.07873 h -87.02362 z"
       fill-rule="evenodd"
       id="path103" />
    <path
       fill="#000000"
       d="m 638.9045,378.7577 9,-0.875 q 0.8125,4.53125 3.29687,6.65625 2.48438,2.125 6.70313,2.125 4.46875,0 6.73437,-1.89063 2.26563,-1.89062 2.26563,-4.42187 0,-1.625 -0.95313,-2.76563 -0.95312,-1.14062 -3.32812,-1.98437 -1.625,-0.5625 -7.40625,-2 -7.4375,-1.84375 -10.4375,-4.53125 -4.21875,-3.78125 -4.21875,-9.21875 0,-3.5 1.98437,-6.54688 1.98438,-3.04687 5.71875,-4.64062 3.73438,-1.59375 9.01563,-1.59375 8.625,0 12.98437,3.78125 4.35938,3.78125 4.57813,10.09375 l -9.25,0.40625 q -0.59375,-3.53125 -2.54688,-5.07813 -1.95312,-1.54687 -5.85937,-1.54687 -4.03125,0 -6.3125,1.65625 -1.46875,1.0625 -1.46875,2.84375 0,1.625 1.375,2.78125 1.75,1.46875 8.5,3.0625 6.75,1.59375 9.98437,3.29687 3.23438,1.70313 5.0625,4.65625 1.82813,2.95313 1.82813,7.29688 0,3.9375 -2.1875,7.375 -2.1875,3.4375 -6.1875,5.10937 -4,1.67188 -9.96875,1.67188 -8.6875,0 -13.34375,-4.01563 -4.65625,-4.01562 -5.5625,-11.70312 z"
       fill-rule="nonzero"
       id="path105" />
    <path
       fill="#000000"
       fill-opacity="0"
       d="M 337.9895,320.6168 H 580.16272 V 421.53019 H 337.9895 Z"
       fill-rule="evenodd"
       id="path107" />
    <path
       fill="#000000"
       d="m 371.59564,342.60785 h 22.89062 q 6.79688,0 10.14063,0.5625 3.34375,0.5625 5.96875,2.35937 2.64062,1.79688 4.39062,4.79688 1.76563,2.98437 1.76563,6.6875 0,4.03125 -2.17188,7.39062 -2.15625,3.35938 -5.875,5.03125 5.23438,1.53125 8.04688,5.20313 2.8125,3.67187 2.8125,8.625 0,3.90625 -1.8125,7.60937 -1.8125,3.6875 -4.96875,5.89063 -3.14063,2.20312 -7.75,2.71875 -2.89063,0.3125 -13.9375,0.39062 h -19.5 z m 11.5625,9.53125 v 13.23437 h 7.57812 q 6.76563,0 8.40625,-0.1875 2.96875,-0.35937 4.65625,-2.04687 1.70313,-1.70313 1.70313,-4.48438 0,-2.65625 -1.46875,-4.3125 -1.45313,-1.65625 -4.34375,-2.01562 -1.71875,-0.1875 -9.89063,-0.1875 z m 0,22.76562 v 15.3125 h 10.70312 q 6.25,0 7.9375,-0.34375 2.57813,-0.46875 4.1875,-2.28125 1.625,-1.82812 1.625,-4.875 0,-2.57812 -1.25,-4.375 -1.25,-1.79687 -3.60937,-2.60937 -2.35938,-0.82813 -10.25,-0.82813 z m 68.04687,24.96875 v -57.26562 h 11.5625 v 57.26562 z m 42.46875,-28.28125 q 0,-8.75 2.60938,-14.6875 1.95312,-4.375 5.32812,-7.84375 3.39063,-3.48437 7.40625,-5.17187 5.35938,-2.26563 12.34375,-2.26563 12.65625,0 20.25,7.85938 7.60938,7.84375 7.60938,21.82812 0,13.875 -7.54688,21.71875 -7.53125,7.82813 -20.15625,7.82813 -12.76562,0 -20.3125,-7.79688 -7.53125,-7.79687 -7.53125,-21.46875 z m 11.90625,-0.39062 q 0,9.71875 4.48438,14.75 4.5,5.01562 11.42187,5.01562 6.90625,0 11.34375,-4.98437 4.4375,-4.98438 4.4375,-14.9375 0,-9.84375 -4.32812,-14.6875 -4.3125,-4.84375 -11.45313,-4.84375 -7.15625,0 -11.53125,4.90625 -4.375,4.89062 -4.375,14.78125 z"
       fill-rule="nonzero"
       id="path109" />
    <path
       fill="#000000"
       fill-opacity="0"
       d="M 404.16403,235.35695 H 516.479 v 95.43309 H 404.16403 Z"
       fill-rule="evenodd"
       id="path111" />
    <path
       fill="#000000"
       d="m 433.509,252.3935 q 3.32813,0 5.20313,2.375 2.23437,2.8125 2.23437,9.32813 0,6.5 -2.25,9.34375 -1.85937,2.34375 -5.1875,2.34375 -3.34375,0 -5.39062,-2.5625 -2.04688,-2.57813 -2.04688,-9.17188 0,-6.46875 2.25,-9.3125 1.85938,-2.34375 5.1875,-2.34375 z m 0,3.64063 q -0.79687,0 -1.42187,0.51562 -0.625,0.5 -0.96875,1.8125 -0.45313,1.70313 -0.45313,5.73438 0,4.03125 0.40625,5.54687 0.40625,1.5 1.01563,2 0.625,0.5 1.42187,0.5 0.79688,0 1.42188,-0.5 0.625,-0.51562 0.96875,-1.82812 0.45312,-1.6875 0.45312,-5.71875 0,-4.03125 -0.40625,-5.53125 -0.40625,-1.51563 -1.03125,-2.01563 -0.60937,-0.51562 -1.40625,-0.51562 z m 17.79688,-3.64063 q 3.32812,0 5.20312,2.375 2.23438,2.8125 2.23438,9.32813 0,6.5 -2.25,9.34375 -1.85938,2.34375 -5.1875,2.34375 -3.34375,0 -5.39063,-2.5625 -2.04687,-2.57813 -2.04687,-9.17188 0,-6.46875 2.25,-9.3125 1.85937,-2.34375 5.1875,-2.34375 z m 0,3.64063 q -0.79688,0 -1.42188,0.51562 -0.625,0.5 -0.96875,1.8125 -0.45312,1.70313 -0.45312,5.73438 0,4.03125 0.40625,5.54687 0.40625,1.5 1.01562,2 0.625,0.5 1.42188,0.5 0.79687,0 1.42187,-0.5 0.625,-0.51562 0.96875,-1.82812 0.45313,-1.6875 0.45313,-5.71875 0,-4.03125 -0.40625,-5.53125 -0.40625,-1.51563 -1.03125,-2.01563 -0.60938,-0.51562 -1.40625,-0.51562 z m 17.79687,-3.64063 q 3.32813,0 5.20313,2.375 2.23437,2.8125 2.23437,9.32813 0,6.5 -2.25,9.34375 -1.85937,2.34375 -5.1875,2.34375 -3.34375,0 -5.39062,-2.5625 -2.04688,-2.57813 -2.04688,-9.17188 0,-6.46875 2.25,-9.3125 1.85938,-2.34375 5.1875,-2.34375 z m 0,3.64063 q -0.79687,0 -1.42187,0.51562 -0.625,0.5 -0.96875,1.8125 -0.45313,1.70313 -0.45313,5.73438 0,4.03125 0.40625,5.54687 0.40625,1.5 1.01563,2 0.625,0.5 1.42187,0.5 0.79688,0 1.42188,-0.5 0.625,-0.51562 0.96875,-1.82812 0.45312,-1.6875 0.45312,-5.71875 0,-4.03125 -0.40625,-5.53125 -0.40625,-1.51563 -1.03125,-2.01563 -0.60937,-0.51562 -1.40625,-0.51562 z m 21.60938,19.35937 h -4.39063 v -16.54687 q -2.40625,2.25 -5.67187,3.32812 v -3.98437 q 1.71875,-0.5625 3.73437,-2.125 2.01563,-1.57813 2.76563,-3.67188 h 3.5625 z"
       fill-rule="nonzero"
       id="path113" />
    <path
       fill="#000000"
       d="m 438.2043,313.7935 h -4.39063 v -16.54688 q -2.40625,2.25 -5.67187,3.32813 v -3.98438 q 1.71875,-0.5625 3.73437,-2.125 2.01563,-1.57812 2.76563,-3.67187 h 3.5625 z m 13.98437,-23 q 3.32813,0 5.20313,2.375 2.23437,2.8125 2.23437,9.32812 0,6.5 -2.25,9.34375 -1.85937,2.34375 -5.1875,2.34375 -3.34375,0 -5.39062,-2.5625 -2.04688,-2.57812 -2.04688,-9.17187 0,-6.46875 2.25,-9.3125 1.85938,-2.34375 5.1875,-2.34375 z m 0,3.64062 q -0.79687,0 -1.42187,0.51563 -0.625,0.5 -0.96875,1.8125 -0.45313,1.70312 -0.45313,5.73437 0,4.03125 0.40625,5.54688 0.40625,1.5 1.01563,2 0.625,0.5 1.42187,0.5 0.79688,0 1.42188,-0.5 0.625,-0.51563 0.96875,-1.82813 0.45312,-1.6875 0.45312,-5.71875 0,-4.03125 -0.40625,-5.53125 -0.40625,-1.51562 -1.03125,-2.01562 -0.60937,-0.51563 -1.40625,-0.51563 z m 21.60938,19.35938 h -4.39063 v -16.54688 q -2.40625,2.25 -5.67187,3.32813 v -3.98438 q 1.71875,-0.5625 3.73437,-2.125 2.01563,-1.57812 2.76563,-3.67187 h 3.5625 z m 16.03125,0 h -4.39063 v -16.54688 q -2.40625,2.25 -5.67187,3.32813 v -3.98438 q 1.71875,-0.5625 3.73437,-2.125 2.01563,-1.57812 2.76563,-3.67187 h 3.5625 z"
       fill-rule="nonzero"
       id="path115" />
  </g>
</svg>
